PathFileType  4	(X/Y/Z) C:\Users\antoi\Documents\MyRepositories\mobilecap\ResultsAnalysis
DataRate	CameraRate	NumFrames	NumMarkers	Units	OrigDataRate	OrigDataStartFrame	OrigNumFrames
100.0	100.0	4	51	mm	100.0	113	301
Frame#	Time	r_knee			r_shank_antsup			r_ankle			r_calc			r_5meta			r_toe			L_knee			L_shank_antsup			L_ankle			L_calc			L_5meta			L_toe			r_sh2			r_sh3			r_sh4			L_sh2			L_sh3			r_thigh1			r_thigh2			r_thigh3			r_thigh4			r_thigh5			L_thigh1			L_thigh2			L_thigh3			L_thigh4			r.ASIS			r.PSIS			L.ASIS			L.PSIS			C7			R_Shoulder			L_Shoulder			R_Sternum			L_Sternum			R_humerus			R_elbow_med			R_elbow_lat			R_forearm			R_wrist_radius			R_wrist_ulna			L_humerus			L_elbow_med			L_elbow_lat			L_forearm			L_wrist_radius			L_wrist_ulna			R_HJC			L_HJC			R_HJC_reg			L_HJC_reg			
		X1	Y1	Z1	X2	Y2	Z2	X3	Y3	Z3	X4	Y4	Z4	X5	Y5	Z5	X6	Y6	Z6	X7	Y7	Z7	X8	Y8	Z8	X9	Y9	Z9	X10	Y10	Z10	X11	Y11	Z11	X12	Y12	Z12	X13	Y13	Z13	X14	Y14	Z14	X15	Y15	Z15	X16	Y16	Z16	X17	Y17	Z17	X18	Y18	Z18	X19	Y19	Z19	X20	Y20	Z20	X21	Y21	Z21	X22	Y22	Z22	X23	Y23	Z23	X24	Y24	Z24	X25	Y25	Z25	X26	Y26	Z26	X27	Y27	Z27	X28	Y28	Z28	X29	Y29	Z29	X30	Y30	Z30	X31	Y31	Z31	X32	Y32	Z32	X33	Y33	Z33	X34	Y34	Z34	X35	Y35	Z35	X36	Y36	Z36	X37	Y37	Z37	X38	Y38	Z38	X39	Y39	Z39	X40	Y40	Z40	X41	Y41	Z41	X42	Y42	Z42	X43	Y43	Z43	X44	Y44	Z44	X45	Y45	Z45	X46	Y46	Z46	X47	Y47	Z47	X48	Y48	Z48	X49	Y49	Z49	X50	Y50	Z50	X51	Y51	Z51	

113	1.12000000	-1052.34785	761.36814	-430.34305	-1081.16951	725.89286	-401.16533	-1233.49170	407.22459	-459.40712	-1296.62206	365.04946	-511.66058	-1118.72219	348.16397	-415.02648	-1075.95608	368.53408	-469.77862	-1061.74427	762.43700	-732.03579	-1052.59617	673.07566	-747.06433	-1234.57623	407.84471	-709.42182	-1301.01452	369.13116	-662.83022	-1124.09936	351.31549	-737.24454	-1078.33645	368.96229	-683.25432	-1131.75450	621.28333	-399.32311	-1017.86275	700.85253	-438.92335	-1069.89758	599.51955	-453.77556	-1126.67866	720.46019	-756.85847	-1182.39714	611.69935	-751.77967	-1139.14473	1034.83189	-380.78391	-1089.62354	931.37284	-379.92571	-1038.39242	935.07648	-404.83591	-1086.64463	1057.04788	-478.21578	-1030.92532	961.36908	-467.63034	-1147.24440	1067.70768	-747.63908	-1094.86877	934.98585	-760.73020	-1252.75116	1024.95300	-742.43707	-1200.91784	896.45161	-728.68268	-1110.22418	1158.01875	-445.83632	-1267.04355	1272.19282	-519.92265	-1120.70466	1135.98378	-673.87857	-1268.35197	1270.81089	-617.56394	-901.50967	1595.27332	-592.78131	-858.23181	1518.29659	-426.87442	-884.02827	1502.24177	-750.89570	-871.98982	1450.86664	-576.35221	-880.11237	1446.33591	-603.72402	-1037.77541	1367.37853	-329.45126	-1145.45076	1365.20699	-352.36473	-1123.19684	1339.93654	-302.82120	-1203.17692	1227.17767	-269.97325	-1269.56550	1144.25493	-269.40775	-1290.47649	1175.47530	-246.20715	-1074.72907	1365.93574	-831.34372	-1184.12497	1347.40196	-788.67229	-1168.74578	1334.55534	-842.51352	-1249.92596	1225.56189	-879.97267	-1315.25681	1138.87207	-881.78499	-1343.79238	1172.10575	-886.96993	-1216.28946	1119.38295	-471.09158	-1229.66055	1117.97462	-661.28861	-1207.67964	1118.07844	-475.21240	-1209.70699	1115.93759	-626.55091	
114	1.13000000	-1047.97189	758.93121	-429.95615	-1076.84837	723.67992	-401.17716	-1232.97519	407.35912	-459.36698	-1296.51296	365.14745	-511.65261	-1118.65314	347.89537	-414.87786	-1075.86413	368.11318	-469.66532	-1056.60923	760.06148	-732.29770	-1048.33661	670.56404	-747.04069	-1234.05347	408.10003	-709.28440	-1300.86087	369.32421	-662.79435	-1124.05693	351.23428	-737.28484	-1078.18436	368.74993	-683.28233	-1128.70265	620.28588	-398.73722	-1013.63723	698.08917	-438.49776	-1066.89913	597.58433	-453.32551	-1121.75289	718.98252	-756.53063	-1179.08417	611.16936	-751.71709	-1138.35169	1030.70463	-379.50400	-1087.46557	927.87055	-379.00132	-1036.34625	932.31530	-403.70627	-1085.60266	1053.86676	-476.87787	-1028.70418	958.88651	-466.11369	-1146.59530	1063.78040	-747.30524	-1092.30478	931.94479	-760.59194	-1251.67043	1019.39929	-741.40441	-1197.87977	891.74662	-727.92255	-1109.74635	1152.23882	-444.98450	-1265.61522	1267.43399	-519.56708	-1120.26661	1129.71499	-672.93450	-1266.98080	1265.86576	-617.18073	-896.36242	1585.65106	-592.47613	-853.83863	1507.47862	-426.47520	-879.47522	1490.96784	-750.48950	-868.12413	1440.88231	-576.04947	-876.18446	1436.37571	-603.25190	-1031.38194	1354.39209	-329.06069	-1139.49805	1351.18240	-351.33968	-1116.44199	1325.75218	-301.93896	-1194.32318	1211.29795	-269.88250	-1259.36161	1127.34812	-269.79860	-1280.55247	1157.99820	-246.04639	-1069.01811	1353.03526	-830.92417	-1178.63363	1333.82576	-788.57127	-1162.92238	1321.17347	-842.55516	-1243.35695	1211.83833	-880.14572	-1307.97899	1124.86483	-882.70030	-1336.83376	1157.67931	-886.94708	-1216.12398	1114.39481	-470.23291	-1229.36618	1112.57145	-660.43497	-1207.40562	1112.97032	-474.22884	-1209.52200	1110.54143	-625.53389	
115	1.14000000	-1043.46808	756.25119	-429.68026	-1072.24792	721.15302	-401.39661	-1232.27996	407.74370	-459.35688	-1296.38330	365.27920	-511.63061	-1118.55521	347.71801	-414.83237	-1075.75891	367.63076	-469.55339	-1051.44284	757.49782	-732.49852	-1043.99216	667.78485	-746.76076	-1233.51365	408.39163	-709.22194	-1300.70723	369.45069	-662.62207	-1124.00935	351.15135	-737.31465	-1078.07535	368.50856	-683.28367	-1125.32984	618.77073	-398.22612	-1009.31517	695.32615	-437.92030	-1063.73953	595.39800	-452.82435	-1116.77547	717.28127	-756.08536	-1175.64946	610.50481	-751.73843	-1137.23900	1026.41275	-378.47475	-1085.07776	924.21307	-378.16660	-1034.02794	929.42301	-402.68093	-1084.36102	1050.40200	-476.04339	-1026.38506	956.16510	-464.82198	-1145.90487	1059.33133	-746.70577	-1089.58177	928.57740	-760.45377	-1250.11913	1013.87437	-740.93571	-1194.61947	886.93846	-727.42707	-1108.97767	1146.40736	-444.28011	-1263.97826	1262.65243	-519.66206	-1119.90787	1123.12900	-671.90861	-1265.42720	1260.71842	-616.83218	-891.44029	1576.29382	-592.12981	-849.74987	1496.76202	-426.08649	-875.13783	1479.80155	-750.14166	-864.40228	1431.19033	-575.70799	-872.37632	1426.64723	-602.82966	-1024.38252	1340.83644	-328.63308	-1133.05924	1336.08014	-350.11421	-1109.08638	1310.63464	-300.93569	-1184.08662	1193.96951	-269.52630	-1247.16246	1108.62234	-270.08651	-1268.83617	1138.48405	-245.74148	-1062.98921	1339.71240	-830.72044	-1172.80453	1319.10555	-788.82388	-1156.47174	1306.78566	-842.86965	-1235.54431	1196.58946	-880.52973	-1298.87384	1108.80221	-883.78438	-1328.29228	1140.97515	-887.21959	-1215.78887	1109.45453	-469.32787	-1229.07369	1106.87791	-659.51776	-1206.97955	1107.94697	-473.26085	-1209.23391	1104.93512	-624.40401	
116	1.15000000	-1038.76351	753.42380	-429.26785	-1067.43953	718.68401	-401.21930	-1231.76599	407.95042	-459.34761	-1296.18818	365.49564	-511.58094	-1118.49973	347.62773	-414.75210	-1075.60893	367.15677	-469.39687	-1046.52314	754.52404	-732.24797	-1039.62999	664.92023	-746.45022	-1233.06545	408.65764	-709.20914	-1300.60930	369.45554	-662.18812	-1123.97723	351.06372	-737.33677	-1078.02061	368.24389	-683.22744	-1121.76994	616.74246	-398.04189	-1004.81378	692.38355	-437.28146	-1060.47189	593.03849	-452.28524	-1111.75168	715.54713	-755.69035	-1172.11144	609.61998	-751.66812	-1135.77233	1022.09742	-377.98230	-1082.37491	920.65072	-377.43613	-1031.26612	926.39625	-401.77048	-1082.76691	1047.03792	-475.66788	-1023.93601	953.24691	-464.07883	-1145.17187	1054.50578	-745.99859	-1087.03184	924.55866	-759.94342	-1248.60670	1008.07927	-740.31361	-1191.19902	881.94620	-727.17153	-1107.92485	1140.64044	-443.52403	-1262.12648	1257.76276	-519.95995	-1119.23410	1116.78569	-671.70336	-1263.61483	1255.40899	-616.56267	-886.73095	1567.23235	-591.83690	-846.02384	1486.22724	-425.74186	-870.99550	1468.86673	-749.71464	-860.80369	1421.90205	-575.22022	-868.71867	1417.37362	-602.32645	-1016.92842	1326.84570	-328.41934	-1126.12353	1319.86017	-348.63817	-1100.99647	1294.61852	-299.84832	-1172.46700	1175.41118	-268.96558	-1232.72664	1088.24183	-270.32024	-1255.15947	1117.18632	-245.41603	-1056.51955	1326.01767	-830.82975	-1166.46851	1303.39293	-789.63822	-1149.24047	1291.20444	-843.47492	-1226.13123	1179.61612	-881.21131	-1287.67752	1090.68922	-884.70353	-1317.87023	1122.03054	-887.89496	-1215.04666	1104.37994	-468.79086	-1228.39817	1101.25947	-658.96827	-1206.38602	1102.83497	-472.41715	-1208.72130	1099.14002	-623.95684	
